<?xml version="1.0" encoding="UTF-8" standalone="no"?>
<svg
   class="svg-icon"
   style="width: 1em; height: 1em;vertical-align: middle;fill: currentColor;overflow: hidden;"
   viewBox="0 0 1024 1024"
   version="1.1"
   id="svg1"
   sodipodi:docname="loading.svg"
   inkscape:version="1.3.2 (091e20e, 2023-11-25, custom)"
   xmlns:inkscape="http://www.inkscape.org/namespaces/inkscape"
   xmlns:sodipodi="http://sodipodi.sourceforge.net/DTD/sodipodi-0.dtd"
   xmlns="http://www.w3.org/2000/svg"
   xmlns:svg="http://www.w3.org/2000/svg">
  <defs
     id="defs1" />
  <sodipodi:namedview
     id="namedview1"
     pagecolor="#ffffff"
     bordercolor="#000000"
     borderopacity="0.25"
     inkscape:showpageshadow="2"
     inkscape:pageopacity="0.0"
     inkscape:pagecheckerboard="0"
     inkscape:deskcolor="#d1d1d1"
     inkscape:zoom="1.7763672"
     inkscape:cx="512.28147"
     inkscape:cy="511.71853"
     inkscape:window-width="3840"
     inkscape:window-height="2054"
     inkscape:window-x="-11"
     inkscape:window-y="-11"
     inkscape:window-maximized="1"
     inkscape:current-layer="svg1" />
  <path
     d="M512.056 908.647c-84.516 0-166.416-27.084-235.266-78.637-84.15-63.028-138.741-155.109-153.675-259.2-14.934-104.119 11.559-207.816 74.588-291.994 130.162-173.812 377.438-209.25 551.194-79.172 72.844 54.562 124.819 133.228 146.391 221.484 3.684 15.103-5.569 30.319-20.644 34.003-15.075 3.572-30.319-5.541-34.003-20.644-18.45-75.628-63-143.044-125.466-189.816-148.866-111.516-360.844-81.112-472.444 67.866-54.028 72.141-76.725 161.016-63.9 250.256 12.797 89.241 59.597 168.131 131.737 222.131 149.006 111.656 360.956 81.197 472.5-67.781 29.194-39.009 49.219-82.716 59.456-129.938 3.319-15.188 18.366-24.834 33.441-21.544 15.188 3.291 24.834 18.281 21.544 33.441-12.009 55.181-35.353 106.2-69.413 151.762-63.028 84.15-155.109 138.769-259.256 153.675-18.984 2.756-37.941 4.106-56.784 4.106z"
     id="path1" />
  <path
     style="fill:#ffffff;stroke:#ffffff;stroke-width:0.562947"
     d="m 493.70423,907.94764 c -21.12985,-1.41907 -31.98147,-2.59439 -46.4431,-5.03021 C 317.62634,881.08287 205.92759,794.24311 152.97857,674.12864 118.71204,596.39525 110.35247,508.1253 129.46726,425.86916 c 19.42481,-83.59024 66.69156,-159.69167 133.46306,-214.88104 35.23136,-29.12017 78.57916,-53.22943 122.40668,-68.08038 67.21959,-22.77736 136.68919,-27.39057 205.47553,-13.64487 89.94722,17.97433 171.55896,67.77835 229.12628,139.82564 29.44662,36.85329 51.99696,78.51147 66.58432,123.00385 8.45124,25.7769 10.34105,35.47206 8.29547,42.5578 -3.11878,10.80318 -11.59496,18.5602 -22.47064,20.56413 -10.89994,2.00838 -23.57468,-4.33507 -28.84105,-14.43436 -0.96663,-1.8537 -2.8283,-7.41392 -4.13709,-12.35605 -26.97928,-101.87782 -100.03889,-185.4723 -197.32914,-225.78306 -11.55551,-4.78786 -32.93423,-11.91744 -44.47279,-14.83121 -37.73802,-9.52981 -74.864,-12.57822 -113.43375,-9.31404 -80.78368,6.83677 -156.45349,42.47966 -212.79891,100.23505 -84.05299,86.1563 -115.67602,207.9922 -84.36286,325.02969 8.95859,33.48404 25.09529,69.07564 44.53792,98.23419 32.21005,48.30612 76.93601,87.91139 129.05705,114.28127 38.63895,19.54883 78.23015,30.8067 123.00708,34.97746 14.21465,1.32399 43.55429,1.32461 57.98028,10e-4 74.3569,-6.82134 142.20027,-35.95659 196.12387,-84.22504 31.97942,-28.62562 58.32865,-63.08994 77.43151,-101.27886 11.58719,-23.16424 19.14925,-43.88513 26.01298,-71.27882 3.19134,-12.73669 4.70083,-16.11387 9.25388,-20.70339 5.30476,-5.34722 12.25969,-8.275 19.65714,-8.275 12.88495,0 24.07093,8.97506 27.06806,21.71808 1.24017,5.27303 0.84008,9.15108 -2.23608,21.6737 -21.67255,88.22513 -73.45238,166.43604 -146.42846,221.17281 -68.08478,51.06799 -152.39284,78.73879 -238.12644,78.15558 -7.74052,-0.0526 -15.21363,-0.17227 -16.60693,-0.26583 z"
     id="path2" />
</svg>
